<!-- icon666.com - MILLIONS vector ICONS FREE --><svg clip-rule="evenodd" fill-rule="evenodd" stroke-linejoin="round" stroke-miterlimit="2" viewBox="0 0 48 48" xmlns="http://www.w3.org/2000/svg" xmlns:xlink="http://www.w3.org/1999/xlink"><linearGradient id="_Linear1" gradientTransform="matrix(29.757 -28.007 28.007 29.757 618.834 587.987)" gradientUnits="userSpaceOnUse" x1="0" x2="1" y1="0" y2="0"><stop offset="0" stop-color="#0056e0"></stop><stop offset=".01" stop-color="#0056e0"></stop><stop offset="1" stop-color="#00e5b8"></stop></linearGradient><g transform="translate(-212 -159)"><g transform="translate(-400 -385.001)"><g id="ngicon"><path d="m632.972 550.254-4.809 8.402c-.069.121-.188.206-.326.233l-9.544 1.929c-1.233.25-2.234 1.141-2.622 2.331-.39 1.194-.103 2.504.751 3.428l6.568 7.107c.092.1.137.235.122.37 0 0-1.096 9.579-1.096 9.579-.142 1.243.397 2.468 1.415 3.205 1.013.732 2.344.868 3.485.354l8.88-4c.13-.058.278-.058.408 0l8.88 4c1.141.514 2.472.378 3.485-.354 1.018-.737 1.557-1.962 1.415-3.205 0 0-1.096-9.579-1.096-9.579-.015-.135.03-.27.122-.37 1.299-1.405 4.385-4.744 6.568-7.107.854-.924 1.141-2.234.751-3.428-.388-1.19-1.389-2.081-2.622-2.331l-9.544-1.929c-.138-.027-.257-.112-.326-.233l-4.809-8.402c-.619-1.083-1.775-1.753-3.028-1.753s-2.409.67-3.028 1.753z" fill="url(#_Linear1)"></path></g></g></g></svg>