<!-- icon666.com - MILLIONS vector ICONS FREE --><svg id="Layer_1" viewBox="0 0 512 512" xmlns="http://www.w3.org/2000/svg" xmlns:xlink="http://www.w3.org/1999/xlink" data-name="Layer 1"><linearGradient id="GradientFill_1" gradientUnits="userSpaceOnUse" x1="256.011" x2="256.012" y1="477.784" y2="34.206"><stop offset="0" stop-color="#6c54a3"></stop><stop offset="1" stop-color="#00b1d2"></stop></linearGradient><path d="m256.007 105.52 123.924 88.369v219.887h-31.168v-111.23a32.021 32.021 0 0 0 -32-32h-121.5a32.014 32.014 0 0 0 -32 32v111.23h-31.173v-219.887zm-205.421 146.448 17.5-12.5v206.312a31.978 31.978 0 0 0 32 32h95.163a31.978 31.978 0 0 0 32-32v-111.23h57.5v111.23a31.977 31.977 0 0 0 32 32h95.17a31.973 31.973 0 0 0 32-32v-206.314l17.5 12.5a32.018 32.018 0 0 0 50.595-25.866v-.282a31.87 31.87 0 0 0 -13.424-25.928l-224-159.737a31.991 31.991 0 0 0 -37.155 0l-224 159.737a31.987 31.987 0 0 0 37.155 52.078z" fill="url(#GradientFill_1)" fill-rule="evenodd"></path></svg>