<!-- icon666.com - MILLIONS vector ICONS FREE --><svg clip-rule="evenodd" fill-rule="evenodd" stroke-linejoin="round" stroke-miterlimit="2" viewBox="0 0 64 64" xmlns="http://www.w3.org/2000/svg" xmlns:xlink="http://www.w3.org/1999/xlink"><linearGradient id="_Linear1" gradientTransform="matrix(64 64 -64 64 207 414)" gradientUnits="userSpaceOnUse" x1="0" x2="1" y1="0" y2="0"><stop offset="0" stop-color="#ae76da"></stop><stop offset="1" stop-color="#251ee5"></stop></linearGradient><g transform="translate(-207 -414)"><g id="Solid-Gradient"><path d="m238.965 423.472c-2.902-2.254-6.72-3.418-10.551-3.47-4.5-.061-8.982 1.416-11.983 4.27-5.788 5.507-6.181 16.516-.395 27.529 3.839 7.799 13.64 15.676 21.858 20.888.654.415 1.488.415 2.142 0 8.224-5.215 18.032-13.1 21.875-20.923 5.769-10.99 5.373-21.99-.413-27.494-3-2.854-7.482-4.331-11.983-4.27-3.831.052-7.648 1.216-10.55 3.47z" fill="url(#_Linear1)"></path></g></g></svg>