<!-- icon666.com - MILLIONS vector ICONS FREE --><svg id="gradient" viewBox="0 0 64 64" xmlns="http://www.w3.org/2000/svg" xmlns:xlink="http://www.w3.org/1999/xlink"><linearGradient id="linear-gradient" gradientUnits="userSpaceOnUse" x1="11.896" x2="52.119" y1="32.012" y2="32.012"><stop offset="0" stop-color="#00c0ff"></stop><stop offset="1" stop-color="#5558ff"></stop></linearGradient><path d="m50.13 49.31a21.14085 21.14085 0 0 1 -5.49 6.62 17.71012 17.71012 0 0 1 -3.05023 1.98c3.88048-6.061 1.06409-13.519.06023-14.85a1.00691 1.00691 0 0 0 -1.81.26 3.95063 3.95063 0 0 1 -1.93 2.64 5.23388 5.23388 0 0 1 -2.95.41c2.31-2.66 3.32-5.43 3.02-8.25-.59-5.44-5.92-9.07-6.8-9.64a.93923.93923 0 0 0 -.54-.21 1.0049 1.0049 0 0 0 -1.03 1.35c.28.82 1.95 6.95-5.60009 13.65992-3.753 3.49374-4.788 7.97085-2.74 12.92011 1.38925 2.96708 2.92393 3.57197-1.20991 1.62997a14.59681 14.59681 0 0 1 -8.16-12.9c-.01-.32-.18-7.7 3.57-10.86.88-1.05 2.81-4.01 2.09-6.07-.45-1.29-1.91-2.17-4.34995-2.64a1.00513 1.00513 0 0 1 -.61005-1.58 8.73848 8.73848 0 0 1 9.09-2.69c-.76-2.33-1.58-6.18-.32-9.73a10.37951 10.37951 0 0 1 5.79-6.05c.07-.03 8.67-4.07 15.22 2.33a.999.999 0 0 1 -.55 1.7c-.26.04-6.26 1-5.57995 5.58.139 1.61545 1.7551 3.24356 2.89995 4.41 1.69 1.82 3.21 3.36 4.66 4.71 3.82 3.55 12.1 13.13 6.32 25.27zm-9.31-3.35c-2.017 3.28915-7.04318 2.47755-8.15006 1.93985a1.00033 1.00033 0 0 1 -.34994-1.65985c5.53815-5.018 4.277-10.75847-.39027-14.66.12027 2.97-.76973 8.01-6.59973 13.19-3.744 3.28418-4.0104 8.57049-1.14 12.57a15.19277 15.19277 0 0 0 2.15 2.48 19.04639 19.04639 0 0 0 2.63.18h3.78a19.4734 19.4734 0 0 0 5.41-.75c3.79818-3.98145 4.10846-10.09153 2.66-13.29zm-9.89-17.6c.155.05272-.03641-.05636-.11-.05a1.15154 1.15154 0 0 1 .11.05z" fill="url(#linear-gradient)"></path></svg>