<!-- icon666.com - MILLIONS vector ICONS FREE --><svg id="svg8" viewBox="0 0 48 48" xmlns="http://www.w3.org/2000/svg" xmlns:xlink="http://www.w3.org/1999/xlink" xmlns:svg="http://www.w3.org/2000/svg"><linearGradient id="linearGradient1766" gradientUnits="userSpaceOnUse" x1="2" x2="46" xlink:href="#linearGradient1764" y1="2" y2="46"></linearGradient><linearGradient id="linearGradient1764"><stop id="stop1760" offset="0" stop-color="#ff0"></stop><stop id="stop1762" offset="1" stop-color="#ff2a2a"></stop></linearGradient><linearGradient id="linearGradient789" gradientUnits="userSpaceOnUse" x1="242" x2="286" xlink:href="#linearGradient1764" y1="302" y2="345"></linearGradient><linearGradient id="linearGradient781" gradientUnits="userSpaceOnUse" x1="46" x2="2" xlink:href="#linearGradient1764" y1="2" y2="46"></linearGradient><linearGradient id="linearGradient773" gradientUnits="userSpaceOnUse" x1="2" x2="45" xlink:href="#linearGradient1764" y1="2" y2="45"></linearGradient><linearGradient id="linearGradient765" gradientUnits="userSpaceOnUse" x1="121.972" x2="165.972" xlink:href="#linearGradient1764" y1="226" y2="182"></linearGradient><linearGradient id="linearGradient755" gradientUnits="userSpaceOnUse" x1="1.997" x2="45.997" xlink:href="#linearGradient1764" y1="46.003" y2="2.003"></linearGradient><linearGradient id="linearGradient745" gradientUnits="userSpaceOnUse" x1="242" x2="286" xlink:href="#linearGradient1764" y1="242" y2="286"></linearGradient><linearGradient id="linearGradient735" gradientUnits="userSpaceOnUse" x1="182" x2="226" xlink:href="#linearGradient1764" y1="242" y2="286"></linearGradient><linearGradient id="linearGradient737" gradientUnits="userSpaceOnUse" x1="46.002" x2="2.002" xlink:href="#linearGradient1764" y1="46.499" y2="2.499"></linearGradient><linearGradient id="linearGradient725" gradientUnits="userSpaceOnUse" x1="1.998" x2="45.998" xlink:href="#linearGradient1764" y1="46.499" y2="2.499"></linearGradient><linearGradient id="linearGradient2779" gradientUnits="userSpaceOnUse" x1="62" x2="106" xlink:href="#linearGradient1764" y1="242" y2="286"></linearGradient><linearGradient id="linearGradient2771" gradientUnits="userSpaceOnUse" x1="2" x2="46" xlink:href="#linearGradient1764" y1="242" y2="286"></linearGradient><linearGradient id="linearGradient2759" gradientUnits="userSpaceOnUse" x1="31" x2="31" xlink:href="#linearGradient1764" y1="-6.34" y2="55.34"></linearGradient><linearGradient id="linearGradient2751" gradientUnits="userSpaceOnUse" x1=".16" x2="61.84" xlink:href="#linearGradient1764" y1="24.5" y2="24.5"></linearGradient><linearGradient id="linearGradient2749" gradientUnits="userSpaceOnUse" x1="182" x2="226" xlink:href="#linearGradient1764" y1="182" y2="226"></linearGradient><linearGradient id="linearGradient2741" gradientUnits="userSpaceOnUse" x1="122" x2="166" xlink:href="#linearGradient1764" y1="182" y2="226"></linearGradient><linearGradient id="linearGradient2733" gradientUnits="userSpaceOnUse" x1="62" x2="106" xlink:href="#linearGradient1764" y1="182" y2="225"></linearGradient><linearGradient id="linearGradient2725" gradientUnits="userSpaceOnUse" x1="2" x2="46" xlink:href="#linearGradient1764" y1="182" y2="226"></linearGradient><linearGradient id="linearGradient2717" gradientUnits="userSpaceOnUse" x1="242" x2="286" xlink:href="#linearGradient1764" y1="123" y2="166"></linearGradient><linearGradient id="linearGradient2709" gradientUnits="userSpaceOnUse" x1="182" x2="226" xlink:href="#linearGradient1764" y1="122" y2="166"></linearGradient><linearGradient id="linearGradient2701" gradientUnits="userSpaceOnUse" x1="122" x2="166" xlink:href="#linearGradient1764" y1="122" y2="166"></linearGradient><linearGradient id="linearGradient2699" gradientUnits="userSpaceOnUse" x1="46.004" x2="2.004" xlink:href="#linearGradient1764" y1="2" y2="46"></linearGradient><linearGradient id="linearGradient2689" gradientUnits="userSpaceOnUse" x1="62" x2="106" xlink:href="#linearGradient1764" y1="122" y2="166"></linearGradient><linearGradient id="linearGradient2679" gradientUnits="userSpaceOnUse" x1="2" x2="45" xlink:href="#linearGradient1764" y1="122" y2="166"></linearGradient><linearGradient id="linearGradient2671" gradientUnits="userSpaceOnUse" x1="242" x2="286" xlink:href="#linearGradient1764" y1="62" y2="106"></linearGradient><linearGradient id="linearGradient2653" gradientUnits="userSpaceOnUse" x1="182" x2="226" xlink:href="#linearGradient1764" y1="62" y2="106"></linearGradient><linearGradient id="linearGradient2645" gradientUnits="userSpaceOnUse" x1="122" x2="166" xlink:href="#linearGradient1764" y1="62" y2="106"></linearGradient><linearGradient id="linearGradient2637" gradientUnits="userSpaceOnUse" x1="62" x2="106" xlink:href="#linearGradient1764" y1="62" y2="106"></linearGradient><linearGradient id="linearGradient2629" gradientUnits="userSpaceOnUse" x1="2" x2="46" xlink:href="#linearGradient1764" y1="62" y2="105"></linearGradient><linearGradient id="linearGradient2621" gradientUnits="userSpaceOnUse" x1="242" x2="286" xlink:href="#linearGradient1764" y1="2" y2="45"></linearGradient><linearGradient id="linearGradient2613" gradientUnits="userSpaceOnUse" x1="182" x2="226" xlink:href="#linearGradient1764" y1="2" y2="46"></linearGradient><linearGradient id="linearGradient2605" gradientUnits="userSpaceOnUse" x1="122" x2="166" xlink:href="#linearGradient1764" y1="2" y2="46"></linearGradient><linearGradient id="linearGradient2597" gradientUnits="userSpaceOnUse" x1="62" x2="106" xlink:href="#linearGradient1764" y1="2" y2="46"></linearGradient><g id="g2248" fill="url(#linearGradient2689)" transform="translate(.001 .033)"><path id="path977" d="m79.449219 126.62109-15.923828 14c-1.010409.88807-1.515625 2.12743-1.515625 3.36719 0 1.23926.506043 2.4792 1.515625 3.36719l15.923828 14.00195c2.052522 1.74482 4.557918 1.47138 6.402343-.37304 1.661269-1.84735 1.490138-4.72255-.376953-6.36329l-12.097656-10.63281 12.097656-10.63281c1.865947-1.64092 2.03786-4.51439.376953-6.36133-1.823857-1.82386-4.205834-2.24575-6.402343-.37305z" transform="translate(-60 -120)" font-variant-ligatures="normal" font-variant-position="normal" font-variant-caps="normal" font-variant-numeric="normal" font-variant-alternates="normal" font-variant-east-asian="normal" font-feature-settings="normal" font-variation-settings="normal" text-indent="0" text-align="start" text-decoration-line="none" text-decoration-style="solid" text-decoration-color="#000000" text-transform="none" text-orientation="mixed" white-space="normal" shape-padding="0" shape-margin="0" inline-size="0" isolation="auto" mix-blend-mode="normal" solid-color="#000000" solid-opacity="1" vector-effect="none"></path><path id="path982" d="m98.443359 126.60156-15.923828 14c-1.010409.88806-1.515625 2.12743-1.515625 3.36719 0 1.23925.506044 2.4792 1.515625 3.36719l15.923828 14.00195c2.052521 1.74482 4.557921 1.47138 6.402341-.37305 1.66127-1.84734 1.49014-4.72254-.37695-6.36328l-12.097656-10.63281 12.097656-10.63281c1.86595-1.64092 2.03786-4.51439.37695-6.36133-1.82169-1.82169-4.32009-2.14833-6.402341-.37305z" transform="translate(-60 -120)" font-variant-ligatures="normal" font-variant-position="normal" font-variant-caps="normal" font-variant-numeric="normal" font-variant-alternates="normal" font-variant-east-asian="normal" font-feature-settings="normal" font-variation-settings="normal" text-indent="0" text-align="start" text-decoration-line="none" text-decoration-style="solid" text-decoration-color="#000000" text-transform="none" text-orientation="mixed" white-space="normal" shape-padding="0" shape-margin="0" inline-size="0" isolation="auto" mix-blend-mode="normal" solid-color="#000000" solid-opacity="1" vector-effect="none"></path></g></svg>