<svg width="64" height="64" viewBox="0 0 64 64" fill="none" xmlns="http://www.w3.org/2000/svg">
<g clip-path="url(#clip0_13_16)">
<path fill-rule="evenodd" clip-rule="evenodd" d="M36.8286 59.175V60.6932H20.2786V59.175C20.2796 58.7701 20.4409 58.382 20.7273 58.0958C21.0137 57.8096 21.4018 57.6485 21.8067 57.6479H35.3032C35.7077 57.6491 36.0952 57.8104 36.381 58.0966C36.6668 58.3828 36.8276 58.7705 36.8283 59.175H36.8286ZM30.9094 56.344H26.1985V52.914H30.9094V56.3434V56.344ZM55.7733 7.5375L57.3049 9.06475L36.3268 30.0426L34.796 28.5155L55.7733 7.5375ZM56.6949 6.61775L60.675 10.6006L61.5109 9.77013L57.5281 5.7875L56.6949 6.61813V6.61775ZM34.3656 29.9265L33.9637 33.3375L37.3681 32.9178L34.3656 29.926V29.9265ZM35.7156 34.4365L38.8531 34.0704C38.9974 34.0507 39.1315 33.9849 39.2354 33.8829L41.4979 31.6145H47.1275V39.6966H35.7159V34.4365H35.7156ZM38.7781 32.499L59.7545 11.5205L58.225 9.9845L37.2458 30.9625L38.7783 32.4986L38.7781 32.499ZM59.867 3.43825C59.9682 3.35177 60.0969 3.30426 60.2301 3.30426C60.3632 3.30426 60.4919 3.35177 60.5931 3.43825L63.8483 6.698C63.9425 6.7933 63.9965 6.92113 63.9992 7.05513C64.0005 7.12326 63.9878 7.19094 63.9618 7.25394C63.9358 7.31695 63.8972 7.37394 63.8483 7.42138L62.4284 8.85L58.4489 4.86725L59.867 3.43825ZM3.5375 9.88625C2.59848 9.88804 1.69855 10.2624 1.0353 10.9271C0.372053 11.5918 -0.000299582 12.4926 1.80923e-07 13.4316V44.939H57.1087V16.0125L42.7988 30.3106H47.7776C47.9498 30.3125 48.1145 30.3818 48.2362 30.5037C48.3579 30.6256 48.427 30.7903 48.4286 30.9625V40.3486C48.4284 40.5212 48.3597 40.6867 48.2377 40.8088C48.1157 40.9309 47.9502 40.9996 47.7776 41H35.0651C34.8928 40.9992 34.7278 40.9302 34.6063 40.808C34.4848 40.6858 34.4166 40.5204 34.4168 40.3481V34.5884L33.2986 34.7134H33.2236C33.1318 34.7139 33.041 34.695 32.957 34.6578C32.8731 34.6206 32.7981 34.566 32.7369 34.4976C32.6756 34.4292 32.6296 34.3486 32.6019 34.2611C32.5742 34.1736 32.5654 34.0812 32.5761 33.99L33.229 28.4441C33.2428 28.2976 33.3094 28.161 33.4165 28.06L38.0524 23.4161H28.1462C28.0612 23.4169 27.9768 23.4009 27.898 23.369C27.8192 23.3371 27.7475 23.2898 27.687 23.2301C27.6264 23.1703 27.5784 23.0992 27.5455 23.0208C27.5126 22.9423 27.4955 22.8582 27.4953 22.7731C27.4954 22.6004 27.564 22.4348 27.686 22.3126C27.808 22.1904 27.9736 22.1216 28.1462 22.1213H39.3506L51.5848 9.88625H3.5375ZM1.80923e-07 46.2429H57.1087V48.0736C57.109 49.0123 56.7368 49.9127 56.074 50.5774C55.4112 51.2421 54.5118 51.6167 53.5731 51.6191H3.5375C2.59847 51.6173 1.69854 51.2429 1.03529 50.5782C0.372049 49.9134 -0.000299638 49.0127 1.80923e-07 48.0736L1.80923e-07 46.2429ZM26.3325 50.7439H30.779C31.256 50.7399 31.7122 50.5476 32.0481 50.2089C32.384 49.8702 32.5725 49.4125 32.5725 48.9354C32.5725 48.4584 32.384 48.0007 32.0481 47.662C31.7122 47.3232 31.256 47.131 30.779 47.127H26.3325C25.8555 47.131 25.3993 47.3232 25.0634 47.662C24.7275 48.0007 24.539 48.4584 24.539 48.9354C24.539 49.4125 24.7275 49.8702 25.0634 50.2089C25.3993 50.5476 25.8555 50.7399 26.3325 50.7439ZM26.3325 48.4219C26.2657 48.4216 26.1995 48.4346 26.1378 48.4601C26.076 48.4857 26.02 48.5232 25.9729 48.5706C25.9258 48.6179 25.8885 48.6742 25.8633 48.7361C25.8381 48.7979 25.8255 48.8642 25.8261 48.931C25.8279 49.065 25.8817 49.193 25.9762 49.288C26.0707 49.383 26.1985 49.4375 26.3325 49.44H30.779C30.9126 49.4369 31.0398 49.3821 31.1339 49.2872C31.228 49.1923 31.2817 49.0646 31.2836 48.931C31.2842 48.8644 31.2715 48.7983 31.2464 48.7366C31.2213 48.6749 31.1842 48.6187 31.1373 48.5714C31.0904 48.5241 31.0346 48.4865 30.9731 48.4608C30.9116 48.4352 30.8456 48.4219 30.779 48.4219H26.3325ZM27.495 15.575C27.4945 15.6603 27.5111 15.7448 27.5437 15.8235C27.5763 15.9023 27.6244 15.9737 27.6851 16.0336C27.7457 16.0935 27.8177 16.1407 27.8969 16.1724C27.9761 16.204 28.0608 16.2196 28.146 16.218H41.7048C41.79 16.2194 41.8746 16.2038 41.9537 16.1721C42.0328 16.1404 42.1048 16.0932 42.1654 16.0333C42.2261 15.9734 42.2741 15.9021 42.3069 15.8234C42.3396 15.7447 42.3562 15.6602 42.3559 15.575C42.3535 15.4038 42.2839 15.2404 42.1621 15.1201C42.0402 14.9998 41.876 14.9322 41.7048 14.932H28.1462C27.975 14.9319 27.8105 14.9994 27.6887 15.1198C27.5668 15.2401 27.4973 15.4037 27.4953 15.575H27.495ZM9.32938 24.5056C9.24419 24.507 9.15958 24.4913 9.08052 24.4596C9.00145 24.4278 8.92951 24.3807 8.86889 24.3208C8.80827 24.2609 8.7602 24.1896 8.72749 24.1109C8.69478 24.0322 8.67808 23.9478 8.67838 23.8626V14.4855C8.67897 14.3129 8.74771 14.1476 8.86964 14.0255C8.99157 13.9034 9.15681 13.8344 9.32938 13.8335H22.0419C22.2144 13.8341 22.3797 13.9031 22.5015 14.0253C22.6233 14.1475 22.6918 14.313 22.6919 14.4855V23.8625C22.6924 23.9477 22.6759 24.0321 22.6433 24.1108C22.6108 24.1895 22.5628 24.2609 22.5022 24.3208C22.4417 24.3807 22.3698 24.4279 22.2907 24.4597C22.2116 24.4914 22.127 24.507 22.0419 24.5055L9.32938 24.5056ZM9.98137 15.1375H21.392V23.2109H9.98137V15.1375ZM15.4041 31.4091H28.9635C29.1358 31.4099 29.3008 31.479 29.4224 31.6012C29.5439 31.7234 29.612 31.8888 29.6119 32.0611C29.6125 32.1462 29.5961 32.2305 29.5637 32.3092C29.5313 32.3879 29.4835 32.4592 29.4231 32.5191C29.3627 32.579 29.2909 32.6263 29.212 32.658C29.133 32.6898 29.0486 32.7055 28.9635 32.7041H15.4041C15.3189 32.7055 15.2343 32.6899 15.1552 32.6582C15.0761 32.6265 15.0041 32.5793 14.9434 32.5195C14.8828 32.4596 14.8347 32.3882 14.802 32.3095C14.7693 32.2308 14.7527 32.1464 14.753 32.0611C14.7535 31.8885 14.8222 31.7231 14.9442 31.6009C15.0662 31.4788 15.2315 31.4098 15.4041 31.4091ZM8.67838 39.25C8.67897 39.0774 8.74772 38.9121 8.86965 38.79C8.99158 38.6679 9.15682 38.5989 9.32938 38.5981H28.9635C29.1353 38.6015 29.299 38.6721 29.4193 38.7948C29.5397 38.9175 29.6071 39.0825 29.6071 39.2544C29.6071 39.4262 29.5397 39.5912 29.4193 39.714C29.299 39.8367 29.1353 39.9073 28.9635 39.9106H9.32938C9.15547 39.9093 8.98921 39.8389 8.86714 39.7151C8.74507 39.5912 8.67718 39.4239 8.67838 39.25Z" fill="url(#paint0_linear_13_16)"/>
</g>
<defs>
<linearGradient id="paint0_linear_13_16" x1="-0.000374819" y1="31.9985" x2="63.9992" y2="31.9985" gradientUnits="userSpaceOnUse">
<stop stop-color="#00C2F3"/>
<stop offset="1" stop-color="#4764AF"/>
</linearGradient>
<clipPath id="clip0_13_16">
<rect width="64" height="64" fill="white"/>
</clipPath>
</defs>
</svg>
