<!-- icon666.com - MILLIONS vector ICONS FREE --><svg viewBox="0 0 32 32" xmlns="http://www.w3.org/2000/svg" xmlns:xlink="http://www.w3.org/1999/xlink"><linearGradient id="linear-gradient" gradientUnits="userSpaceOnUse" x1="16" x2="16" y1="-.167" y2="32.333"><stop offset="0" stop-color="#08c8f6"></stop><stop offset="1" stop-color="#4d5dfb"></stop></linearGradient><g id="avatar"><circle cx="16" cy="16" fill="url(#linear-gradient)" r="14.5"></circle><path d="m16 16.535a4.018 4.018 0 1 1 4.018-4.017 4.019 4.019 0 0 1 -4.018 4.017zm0 1a7.778 7.778 0 0 1 7.559 5.965h-15.118a7.778 7.778 0 0 1 7.559-5.965zm-2.466-.648a8.79 8.79 0 0 0 -6.2 7.035.5.5 0 0 0 .494.578h16.34a.5.5 0 0 0 .494-.578 8.79 8.79 0 0 0 -6.2-7.035 5.018 5.018 0 1 0 -4.933 0z" fill="#fff" fill-rule="evenodd"></path></g></svg>